<svg width="104" height="118" viewBox="0 0 104 118" fill="none" xmlns="http://www.w3.org/2000/svg">
<circle cx="3" cy="3" r="3" fill="#EDEDED"/>
<circle cx="3" cy="17" r="3" fill="#EDEDED"/>
<circle cx="3" cy="31" r="3" fill="#EDEDED"/>
<circle cx="3" cy="45" r="3" fill="#EDEDED"/>
<circle cx="3" cy="59" r="3" fill="#EDEDED"/>
<circle cx="3" cy="73" r="3" fill="#EDEDED"/>
<circle cx="3" cy="87" r="3" fill="#EDEDED"/>
<circle cx="3" cy="101" r="3" fill="#EDEDED"/>
<circle cx="3" cy="115" r="3" fill="#EDEDED"/>
<circle cx="17" cy="3" r="3" fill="#EDEDED"/>
<circle cx="17" cy="17" r="3" fill="#EDEDED"/>
<circle cx="17" cy="31" r="3" fill="#EDEDED"/>
<circle cx="17" cy="45" r="3" fill="#EDEDED"/>
<circle cx="17" cy="59" r="3" fill="#EDEDED"/>
<circle cx="17" cy="73" r="3" fill="#EDEDED"/>
<circle cx="17" cy="87" r="3" fill="#EDEDED"/>
<circle cx="17" cy="101" r="3" fill="#EDEDED"/>
<circle cx="17" cy="115" r="3" fill="#EDEDED"/>
<circle cx="31" cy="3" r="3" fill="#EDEDED"/>
<circle cx="31" cy="17" r="3" fill="#EDEDED"/>
<circle cx="31" cy="31" r="3" fill="#EDEDED"/>
<circle cx="31" cy="45" r="3" fill="#EDEDED"/>
<circle cx="31" cy="59" r="3" fill="#EDEDED"/>
<circle cx="31" cy="73" r="3" fill="#EDEDED"/>
<circle cx="31" cy="87" r="3" fill="#EDEDED"/>
<circle cx="31" cy="101" r="3" fill="#EDEDED"/>
<circle cx="31" cy="115" r="3" fill="#EDEDED"/>
<circle cx="45" cy="3" r="3" fill="#EDEDED"/>
<circle cx="45" cy="17" r="3" fill="#EDEDED"/>
<circle cx="45" cy="31" r="3" fill="#EDEDED"/>
<circle cx="45" cy="45" r="3" fill="#EDEDED"/>
<circle cx="45" cy="59" r="3" fill="#EDEDED"/>
<circle cx="45" cy="73" r="3" fill="#EDEDED"/>
<circle cx="45" cy="87" r="3" fill="#EDEDED"/>
<circle cx="45" cy="101" r="3" fill="#EDEDED"/>
<circle cx="45" cy="115" r="3" fill="#EDEDED"/>
<circle cx="59" cy="3" r="3" fill="#EDEDED"/>
<circle cx="59" cy="17" r="3" fill="#EDEDED"/>
<circle cx="59" cy="31" r="3" fill="#EDEDED"/>
<circle cx="59" cy="45" r="3" fill="#EDEDED"/>
<circle cx="59" cy="59" r="3" fill="#EDEDED"/>
<circle cx="59" cy="73" r="3" fill="#EDEDED"/>
<circle cx="59" cy="87" r="3" fill="#EDEDED"/>
<circle cx="59" cy="101" r="3" fill="#EDEDED"/>
<circle cx="59" cy="115" r="3" fill="#EDEDED"/>
<circle cx="73" cy="3" r="3" fill="#EDEDED"/>
<circle cx="73" cy="17" r="3" fill="#EDEDED"/>
<circle cx="73" cy="31" r="3" fill="#EDEDED"/>
<circle cx="73" cy="45" r="3" fill="#EDEDED"/>
<circle cx="73" cy="59" r="3" fill="#EDEDED"/>
<circle cx="73" cy="73" r="3" fill="#EDEDED"/>
<circle cx="73" cy="87" r="3" fill="#EDEDED"/>
<circle cx="73" cy="101" r="3" fill="#EDEDED"/>
<circle cx="73" cy="115" r="3" fill="#EDEDED"/>
<circle cx="87" cy="3" r="3" fill="#EDEDED"/>
<circle cx="87" cy="17" r="3" fill="#EDEDED"/>
<circle cx="87" cy="31" r="3" fill="#EDEDED"/>
<circle cx="87" cy="45" r="3" fill="#EDEDED"/>
<circle cx="87" cy="59" r="3" fill="#EDEDED"/>
<circle cx="87" cy="73" r="3" fill="#EDEDED"/>
<circle cx="87" cy="87" r="3" fill="#EDEDED"/>
<circle cx="87" cy="101" r="3" fill="#EDEDED"/>
<circle cx="87" cy="115" r="3" fill="#EDEDED"/>
<circle cx="101" cy="3" r="3" fill="#EDEDED"/>
<circle cx="101" cy="17" r="3" fill="#EDEDED"/>
<circle cx="101" cy="31" r="3" fill="#EDEDED"/>
<circle cx="101" cy="45" r="3" fill="#EDEDED"/>
<circle cx="101" cy="59" r="3" fill="#EDEDED"/>
<circle cx="101" cy="73" r="3" fill="#EDEDED"/>
<circle cx="101" cy="87" r="3" fill="#EDEDED"/>
<circle cx="101" cy="101" r="3" fill="#EDEDED"/>
<circle cx="101" cy="115" r="3" fill="#EDEDED"/>
</svg>
