<svg width="28" height="28" viewBox="0 0 28 28" fill="none" xmlns="http://www.w3.org/2000/svg">
<path d="M8.96151 12.906C8.27189 12.7074 7.58227 12.6067 6.91144 12.6067C5.87553 12.6067 5.01115 12.8434 4.34091 13.1333C4.98707 10.7677 6.53931 6.68605 9.63146 6.2264C9.91783 6.18381 10.1525 5.97674 10.2306 5.69801L10.9064 3.28078C10.9634 3.07635 10.9296 2.85754 10.813 2.68014C10.6964 2.50274 10.5091 2.38437 10.2991 2.35559C10.0708 2.32445 9.83823 2.30859 9.60767 2.30859C5.89609 2.30859 2.22034 6.18263 0.669276 11.7296C-0.241216 14.984 -0.508196 19.8766 1.73455 22.9561C2.98956 24.6793 4.82054 25.5995 7.17666 25.6915C7.18635 25.6918 7.19575 25.6921 7.20544 25.6921C10.1126 25.6921 12.6904 23.7342 13.4746 20.9313C13.9431 19.2557 13.7313 17.4984 12.8778 15.982C12.0334 14.4826 10.6427 13.3897 8.96151 12.906Z" fill="#106A64"/>
<path d="M27.1593 15.9823C26.3149 14.4826 24.9242 13.3897 23.243 12.906C22.5534 12.7074 21.8637 12.6067 21.1932 12.6067C20.1573 12.6067 19.2926 12.8434 18.6224 13.1333C19.2685 10.7677 20.8208 6.68605 23.9132 6.2264C24.1996 6.18381 24.434 5.97674 24.5124 5.69801L25.1882 3.28078C25.2452 3.07635 25.2114 2.85754 25.0948 2.68014C24.9785 2.50274 24.7911 2.38437 24.5808 2.35559C24.3529 2.32445 24.1203 2.30859 23.8894 2.30859C20.1779 2.30859 16.5021 6.18263 14.9508 11.7296C14.0406 14.984 13.7736 19.8766 16.0166 22.9567C17.2713 24.6796 19.1026 25.6001 21.4584 25.6918C21.4681 25.6921 21.4775 25.6924 21.4875 25.6924C24.3943 25.6924 26.9725 23.7345 27.7567 20.9316C28.2246 19.256 28.0125 17.4984 27.1593 15.9823Z" fill="#106A64"/>
</svg>
