<svg width="56" height="7" viewBox="0 0 56 7" fill="none" xmlns="http://www.w3.org/2000/svg">
<path d="M55.3551 3.91592C55.4568 4.11206 55.3802 4.35347 55.1841 4.45512L51.9879 6.11173C51.7917 6.21338 51.5503 6.13679 51.4487 5.94066C51.347 5.74453 51.4236 5.50312 51.6197 5.40146L54.4608 3.92892L52.9883 1.08786C52.8866 0.891727 52.9632 0.650319 53.1593 0.548662C53.3555 0.447004 53.5969 0.523593 53.6985 0.719728L55.3551 3.91592ZM54.879 4.48126C49.563 2.79471 39.8435 2.20673 29.551 2.45416C19.273 2.70124 8.49299 3.77911 1.08504 5.39086L0.914959 4.60914C8.38889 2.98304 19.2231 1.90221 29.5317 1.65439C39.8258 1.40693 49.6653 1.98787 55.121 3.71872L54.879 4.48126Z" fill="#106A64"/>
</svg>
