<svg width="63" height="19" viewBox="0 0 63 19" fill="none" xmlns="http://www.w3.org/2000/svg">
<path d="M21.3151 17.9983C25.3744 18.2393 29.4478 18.5584 33.5213 18.4365C36.895 18.3355 40.2687 17.9324 43.6066 17.476C48.8615 16.7575 54.6998 15.9157 59.3148 13.1897C60.6785 12.3841 62.4294 10.3286 61.6033 8.7606C60.8074 7.2498 59.1263 6.22965 57.6517 5.36694C55.8271 4.29939 53.8192 3.28835 51.7663 2.66833C44.2493 0.398067 35.8353 -0.148507 27.9881 0.515944C21.735 1.04542 15.4275 1.99958 9.30212 3.30631C6.54598 3.89427 3.3217 4.61686 1.45463 6.80996C0.48291 7.95136 0.392307 9.27106 0.395834 10.6555C0.400821 12.6129 1.32831 13.1127 3.40653 13.7848C11.3608 16.3571 20.159 17.0739 28.5201 17.5586C29.4361 17.6117 29.6048 17.7789 30.0798 17.293" stroke="#106A64" stroke-width="0.5" stroke-linecap="round"/>
</svg>
